<svg width="24" height="24" viewBox="0 0 24 24" fill="none" xmlns="http://www.w3.org/2000/svg"><path cx="12" cy="12" r="8.5" stroke="#fff" stroke-opacity=".4" stroke-width="3" d="M20.5 12A8.5 8.5 0 0 1 12 20.5A8.5 8.5 0 0 1 3.5 12A8.5 8.5 0 0 1 20.5 12z"/><mask id="a" fill="#fff"><path d="M20.5 12c0.828 0 1.512 0.675 1.388 1.494a9.999 9.999 0 0 1 -8.394 8.394C12.675 22.011 12 21.328 12 20.5c0 -0.828 0.68 -1.484 1.489 -1.66a7.004 7.004 0 0 0 5.349 -5.351c0.177 -0.81 0.833 -1.489 1.661 -1.489Z"/></mask><path d="M20.5 12c0.828 0 1.512 0.675 1.388 1.494a9.999 9.999 0 0 1 -8.394 8.394C12.675 22.011 12 21.328 12 20.5c0 -0.828 0.68 -1.484 1.489 -1.66a7.004 7.004 0 0 0 5.349 -5.351c0.177 -0.81 0.833 -1.489 1.661 -1.489Z" stroke="#fff" stroke-width="3.9999999999999996" mask="url(#a)"/></svg>